<svg width="1059" height="1490" viewBox="0 0 1059 1490" fill="none" xmlns="http://www.w3.org/2000/svg">
<path d="M380.5 1302.5L424 1295.5V1248L437.5 1258.5H468L483.5 1248V1295.5L487 1359.5L495 1419.77L500 1453L495 1483L475.5 1488.5L462 1483L444.5 1461.5L437.5 1429.5V1387L405.5 1418L372.5 1442L336.5 1448L320 1437V1418L336.5 1393.5L372.5 1360.5L320 1376L271.5 1387H242.5L231 1373L235 1340L262 1331.5L308.5 1313L380.5 1302.5Z" fill="#FFAB58" stroke="black"/>
<path d="M586.5 175.5L600 217L610.5 239.5L628.5 217L647 197L659.5 192H676L690.5 206H710.5L723.5 217L744 239.5L762.5 243L776 251.5L781 273.5L796.5 290L821.5 303L840 306.5L856.5 303L877 288L891.5 263.5V233L886 206L915 214L939.5 209L954.5 192L958.5 166.5L954.5 145L939.5 125L915 111.5L888.5 107.5L899.5 91L902.5 61.5V38L884.5 16.5L862.5 6.5H843L823.5 9.5L804 16.5L787.5 22L771 28V15L754.5 0.5H733.5L706 16.5L678.5 51L663.5 91L656 111.5L632 114L610.5 125L589.5 148L586.5 175.5Z" fill="#BD3939" stroke="black"/>
<path d="M413 547.5L421.5 530L463.5 504L497 461L553 352L609 260.5L611.5 238.5L635.5 211L648 197.5L661 192H677L692 205.5H705.5H714L727.5 217.5L740 230.5L748.5 240L767 245L782 254.5L786 276.5L801 290.5L825.5 304L845 306.5L858.5 302L877.5 288L892 264.5V240L889.5 219L886.5 206.5L904 210.5L927 234L938.5 260.5L966.5 299L993 349.5L1008.5 389.5L1023 448L1030.5 503V543.5L1028 588L1023 629L1033 675.5L1041 724.5L1047 758V804.5L1033 808H1018L1003 797V804.5L995 828.5L985 851L965 877.5L945.5 900L914 918.5L889.5 924H869L847.5 918.5L823.5 905L806.5 888L784.5 905L751 918.5L717.5 929.5L682.5 935L667 918.5L657.5 898L654 877.5V853H626L598.5 849.5L571.5 840.5L553 828.5L536 808L531 781.5L536 757.5L510.5 744.5L478 726.5L454 709L445 677.5L454 647.5L471.5 625L439.5 614.5L413 601L399 579.5V561.5L413 547.5Z" fill="#E6CCB2" stroke="black"/>
<path d="M904.5 366.5L912.5 362L922 360.5L927.5 362L935 367.5L940.5 376L942.5 385L941.5 393.5L938 401.5L929.5 407L922 408.5L913 408L905.5 403.5L899 396L896.5 388V378.5L900 372L904.5 366.5Z" fill="#746F6F" stroke="black"/>
<path d="M925 375.5L928.5 371.5H934L937.5 375.5V379.5L935.5 384L932.5 385L928.5 384L925 380.5V375.5Z" fill="#FFFDFD" stroke="black"/>
<path d="M750 365L758 363H765L774 367.5L779 376L780.5 388.5V396L777.5 402L772.5 405.5L764 408.5H754.5L743.5 405.5L736 400.5L732 394V385.5L734.5 378.5L741 370.5L750 365Z" fill="#746F6F" stroke="black"/>
<path d="M759 376.5L762 370.5L768.5 369L773 372L775 376.5L773 382L768.5 384.5H763.5L760 381L759 376.5Z" fill="#FFFDFD" stroke="black"/>
<g filter="url(#filter0_d_7_11)">
<path d="M779 556.5L801 512L824.5 528.5L864 536.5L899.5 528.5L913.5 545.5L919.5 576L913.5 609L891.5 630L854 624.5L824.5 646.5L792.5 642.5L779 619L769.5 583L779 556.5Z" fill="#F84E4E"/>
<path d="M779 556.5L801 512L824.5 528.5L864 536.5L899.5 528.5L913.5 545.5L919.5 576L913.5 609L891.5 630L854 624.5L824.5 646.5L792.5 642.5L779 619L769.5 583L779 556.5Z" stroke="black"/>
</g>
<path d="M800 475.5L824.5 447L862 433.5L906 447L921.5 481L916 511L897.5 527.5L862 536.5L827.5 531L800 511V475.5Z" fill="#FCB147" stroke="black"/>
<path d="M491.5 1299.5V1251.5H517H550.5V1293L563.5 1310.5L619.5 1305H690.5L733 1320L755.5 1348L748 1363.5H717.5L690.5 1353.5L666 1348H640L673.5 1374L683 1405.5L673.5 1432.5L649.5 1437.5L629 1405.5L596 1374L558 1353.5L576.5 1374L596 1405.5V1432.5L585 1451.5H563.5L541 1426L509.5 1374L496.5 1337.5L491.5 1299.5Z" fill="#FFAB58" stroke="black"/>
<path d="M260.5 507V528L302 526H350H388.5H410.5L424.5 531L416.5 546.5L400.5 562.5V570.5V578.5L408.5 593L416.5 602.5L440 615L473 625.5L455.5 648L447 677.5L455.5 708.5L480.5 727L496.5 736L537.5 758L533.5 782L537.5 807L555 828.5L573.5 841.5L597.5 850L627.5 854H655V876L659 897L668.5 920L684.5 934.5L718 930.5L753 920L786 905.5L808 887.5L825 905.5L849.5 920L869.5 924.5H890.5L912.5 920L946.5 899.5L966.5 878L983 854.5L993 834.5L1005 804V797L1020 808.5H1035.5L1048 804L1058 885V914.5L1054.5 945L1046.5 1001.5L1034 1040.5L1014 1073.5L995.5 1103L963 1135L901 1172.5L843 1194L777.5 1207L679.5 1218L620 1221.5H572L564.5 1243.5L553 1252H485L471.5 1258H439.5L424.5 1248.5V1221.5L336 1212.5L254.5 1191.5L171 1150.5L111.5 1112.5L57 1051.5L35.5 1020.5L20 982.5L12.5 937V887.5L21.5 830.5L38.5 772L29 726V696.5L10.5 684L5 672L1 653L5 633L29 586.5L21.5 571.5L29 524.5L48 491L72.5 464.5L76.5 435.5L90.5 408H111.5L139.5 418.5L187.5 443.5L236 480L260.5 507Z" fill="#EDEDED"/>
<path d="M260.5 528V507L236 480L187.5 443.5L139.5 418.5L111.5 408H90.5L76.5 435.5L72.5 464.5L48 491L29 524.5L21.5 571.5L29 586.5L5 633L1 653L5 672L10.5 684L29 696.5V726L38.5 772M260.5 528L230 531L200 538L180 550.5L167 566M260.5 528L302 526H350H388.5H410.5L424.5 531L416.5 546.5L400.5 562.5V570.5V578.5L408.5 593L416.5 602.5L440 615L473 625.5L455.5 648L447 677.5L455.5 708.5L480.5 727L496.5 736L537.5 758L533.5 782L537.5 807L555 828.5L573.5 841.5L597.5 850L627.5 854H655V876L659 897L668.5 920L684.5 934.5L718 930.5L753 920L786 905.5L808 887.5L825 905.5L849.5 920L869.5 924.5H890.5L912.5 920L946.5 899.5L966.5 878L983 854.5L993 834.5L1005 804V797L1020 808.5H1035.5L1048 804L1058 885V914.5L1054.5 945L1046.5 1001.5L1034 1040.5L1014 1073.5L995.5 1103L963 1135L901 1172.5L843 1194L777.5 1207L679.5 1218L620 1221.5H572L564.5 1243.5L553 1252H485L471.5 1258H439.5L424.5 1248.5V1221.5L336 1212.5L254.5 1191.5L171 1150.5L111.5 1112.5L57 1051.5L35.5 1020.5L20 982.5L12.5 937V887.5L21.5 830.5L38.5 772M38.5 772L64.5 722.5" stroke="black"/>
<path d="M238 566L255 563.5L233.5 576L215 594.5L202.5 621.5L197.5 647.5L202.5 667L209 699L220.5 713.5V723.5L209 735L202.5 754L209 790.5L227.5 833.5L252 873L285 904L317 928L300.5 934L275 916L248 889L216.5 838.5L191.5 770.5L189 735L197.5 713.5L195 699L185.5 660L190.5 626L211.5 586L238 566Z" fill="black" stroke="black"/>
<path d="M244.5 578L231.5 582L221 590.5L204.5 619L199 648.5L210.5 699.5L221 713V723.5L210.5 734L204.5 756.5L210.5 788.5L227.5 832.5L254 873.5L273 891.5L309.5 922.5H334.5L296 895L273 866.5L249.5 832.5L231.5 794L227.5 767.5L237 731L254 723.5L273 734L290.5 769L314.5 794L341 804.5H366L334.5 788.5L309.5 769L290.5 743L286 719.5V694.5L309.5 672L299 659.5L295 629.5L290.5 654L281.5 682.5L259 694.5L240.5 687.5L227.5 659.5L231.5 629.5L240.5 603L268 578H244.5Z" fill="#E6CCB2"/>
<defs>
<filter id="filter0_d_7_11" x="764.977" y="511.256" width="159.032" height="143.765" filterUnits="userSpaceOnUse" color-interpolation-filters="sRGB">
<feFlood flood-opacity="0" result="BackgroundImageFix"/>
<feColorMatrix in="SourceAlpha" type="matrix" values="0 0 0 0 0 0 0 0 0 0 0 0 0 0 0 0 0 0 127 0" result="hardAlpha"/>
<feOffset dy="4"/>
<feGaussianBlur stdDeviation="2"/>
<feComposite in2="hardAlpha" operator="out"/>
<feColorMatrix type="matrix" values="0 0 0 0 0 0 0 0 0 0 0 0 0 0 0 0 0 0 0.25 0"/>
<feBlend mode="normal" in2="BackgroundImageFix" result="effect1_dropShadow_7_11"/>
<feBlend mode="normal" in="SourceGraphic" in2="effect1_dropShadow_7_11" result="shape"/>
</filter>
</defs>
</svg>
